<?xml version="1.0" encoding="utf-8"?>
<!-- Generator: Adobe Illustrator 22.1.0, SVG Export Plug-In . SVG Version: 6.00 Build 0)  -->
<svg version="1.1" id="Layer_1" xmlns="http://www.w3.org/2000/svg" xmlns:xlink="http://www.w3.org/1999/xlink" x="0px" y="0px"
	 viewBox="0 0 100 100" style="enable-background:new 0 0 100 100;" xml:space="preserve">
<style type="text/css">
	.st0{fill:url(#SVGID_1_);stroke:#604C3F;stroke-width:8.912060e-02;stroke-miterlimit:10;}
	.st1{fill:url(#SVGID_2_);}
	.st2{fill:url(#SVGID_3_);}
	.st3{fill:url(#SVGID_4_);}
	.st4{fill:url(#SVGID_5_);}
	.st5{fill:url(#SVGID_6_);}
	.st6{fill:url(#SVGID_7_);}
	.st7{fill:url(#SVGID_8_);}
	.st8{fill:url(#SVGID_9_);}
	.st9{fill:url(#SVGID_10_);}
	.st10{fill:url(#SVGID_11_);}
	.st11{fill:url(#SVGID_12_);}
	.st12{fill:url(#SVGID_13_);}
	.st13{fill:url(#SVGID_14_);}
	.st14{fill:url(#SVGID_15_);}
	.st15{fill:url(#SVGID_16_);}
	.st16{fill:url(#SVGID_17_);}
	.st17{fill:url(#SVGID_18_);}
	.st18{fill:url(#SVGID_19_);}
	.st19{fill:url(#SVGID_20_);}
	.st20{fill:url(#SVGID_21_);}
	.st21{fill:url(#SVGID_22_);}
	.st22{fill:url(#SVGID_23_);}
	.st23{fill:url(#SVGID_24_);}
	.st24{fill:url(#SVGID_25_);}
	.st25{fill:url(#SVGID_26_);}
	.st26{fill:url(#SVGID_27_);}
	.st27{fill:url(#SVGID_28_);}
	.st28{fill:url(#SVGID_29_);}
	.st29{fill:url(#SVGID_30_);}
	.st30{fill:url(#SVGID_31_);}
	.st31{fill:url(#SVGID_32_);}
	.st32{fill:url(#SVGID_33_);}
	.st33{fill:url(#SVGID_34_);}
	.st34{fill:url(#SVGID_35_);}
	.st35{fill:url(#SVGID_36_);}
	.st36{fill:url(#SVGID_37_);}
	.st37{fill:url(#SVGID_38_);}
	.st38{fill:url(#SVGID_39_);}
	.st39{fill:url(#SVGID_40_);}
	.st40{fill:url(#SVGID_41_);}
	.st41{fill:url(#SVGID_42_);}
	.st42{fill:url(#SVGID_43_);}
	.st43{fill:url(#SVGID_44_);}
	.st44{fill:url(#SVGID_45_);}
	.st45{fill:url(#SVGID_46_);}
	.st46{fill:url(#SVGID_47_);}
	.st47{fill:url(#SVGID_48_);}
	.st48{fill:url(#SVGID_49_);}
	.st49{fill:url(#SVGID_50_);}
	.st50{fill:url(#SVGID_51_);}
	.st51{fill:url(#SVGID_52_);}
	.st52{fill:url(#SVGID_53_);}
	.st53{fill:url(#SVGID_54_);}
	.st54{fill:url(#SVGID_55_);}
	.st55{fill:url(#SVGID_56_);}
	.st56{fill:url(#SVGID_57_);}
	.st57{fill:url(#SVGID_58_);}
	.st58{fill:url(#SVGID_59_);}
	.st59{fill:url(#SVGID_60_);}
	.st60{fill:url(#SVGID_61_);}
	.st61{fill:url(#SVGID_62_);}
	.st62{fill:url(#SVGID_63_);}
	.st63{fill:url(#SVGID_64_);}
	.st64{fill:url(#SVGID_65_);}
	.st65{fill:url(#SVGID_66_);}
	.st66{fill:url(#SVGID_67_);}
	.st67{fill:url(#SVGID_68_);}
	.st68{fill:url(#SVGID_69_);}
	.st69{fill:url(#SVGID_70_);}
	.st70{fill:url(#SVGID_71_);}
	.st71{fill:url(#SVGID_72_);}
	.st72{fill:url(#SVGID_73_);}
	.st73{fill:url(#SVGID_74_);}
	.st74{fill:url(#SVGID_75_);}
	.st75{fill:url(#SVGID_76_);}
	.st76{fill:url(#SVGID_77_);}
	.st77{fill:url(#SVGID_78_);}
	.st78{fill:url(#SVGID_79_);}
	.st79{fill:url(#SVGID_80_);}
	.st80{fill:url(#SVGID_81_);}
	.st81{fill:url(#SVGID_82_);}
	.st82{fill:url(#SVGID_83_);}
	.st83{fill:url(#SVGID_84_);}
	.st84{fill:url(#SVGID_85_);}
	.st85{fill:url(#SVGID_86_);}
	.st86{fill:url(#SVGID_87_);}
	.st87{fill:url(#SVGID_88_);}
	.st88{fill:url(#SVGID_89_);}
	.st89{fill:url(#SVGID_90_);}
	.st90{fill:url(#SVGID_91_);}
	.st91{fill:url(#SVGID_92_);}
	.st92{fill:url(#SVGID_93_);}
	.st93{fill:url(#SVGID_94_);}
	.st94{fill:url(#SVGID_95_);}
	.st95{fill:url(#SVGID_96_);}
	.st96{fill:url(#SVGID_97_);}
	.st97{fill:url(#SVGID_98_);}
	.st98{fill:url(#SVGID_99_);}
	.st99{fill:url(#SVGID_100_);}
	.st100{fill:url(#SVGID_101_);}
	.st101{fill:url(#SVGID_102_);}
	.st102{fill:url(#SVGID_103_);}
	.st103{fill:url(#SVGID_104_);}
	.st104{fill:url(#SVGID_105_);}
	.st105{fill:url(#SVGID_106_);}
	.st106{fill:url(#SVGID_107_);}
	.st107{fill:url(#SVGID_108_);}
	.st108{fill:url(#SVGID_109_);}
	.st109{fill:url(#SVGID_110_);}
	.st110{fill:url(#SVGID_111_);}
	.st111{fill:url(#SVGID_112_);}
	.st112{fill:url(#SVGID_113_);}
	.st113{fill:url(#SVGID_114_);}
	.st114{fill:url(#SVGID_115_);}
	.st115{fill:url(#SVGID_116_);}
	.st116{fill:url(#SVGID_117_);}
	.st117{fill:url(#SVGID_118_);}
	.st118{fill:url(#SVGID_119_);}
	.st119{fill:url(#SVGID_120_);}
	.st120{fill:url(#SVGID_121_);}
	.st121{fill:url(#SVGID_122_);}
	.st122{fill:url(#SVGID_123_);}
	.st123{fill:url(#SVGID_124_);}
	.st124{fill:url(#SVGID_125_);}
	.st125{fill:url(#SVGID_126_);}
	.st126{fill:url(#SVGID_127_);}
	.st127{fill:url(#SVGID_128_);}
	.st128{fill:url(#SVGID_129_);}
	.st129{fill:url(#SVGID_130_);}
	.st130{fill:url(#SVGID_131_);}
	.st131{fill:url(#SVGID_132_);}
	.st132{fill:url(#SVGID_133_);}
	.st133{fill:url(#SVGID_134_);}
	.st134{fill:url(#SVGID_135_);}
	.st135{fill:url(#SVGID_136_);}
	.st136{fill:url(#SVGID_137_);}
	.st137{fill:url(#SVGID_138_);}
	.st138{fill:url(#SVGID_139_);}
	.st139{fill:url(#SVGID_140_);}
	.st140{fill:url(#SVGID_141_);}
	.st141{fill:url(#SVGID_142_);}
	.st142{fill:url(#SVGID_143_);}
	.st143{fill:url(#SVGID_144_);}
	.st144{fill:url(#SVGID_145_);}
	.st145{fill:url(#SVGID_146_);}
	.st146{fill:url(#SVGID_147_);}
	.st147{fill:url(#SVGID_148_);}
	.st148{fill:url(#SVGID_149_);}
	.st149{fill:url(#SVGID_150_);}
	.st150{fill:url(#SVGID_151_);}
	.st151{fill:url(#SVGID_152_);}
	.st152{fill:url(#SVGID_153_);}
	.st153{fill:url(#SVGID_154_);}
	.st154{fill:url(#SVGID_155_);}
	.st155{fill:url(#SVGID_156_);}
	.st156{fill:url(#SVGID_157_);}
	.st157{fill:url(#SVGID_158_);}
	.st158{fill:url(#SVGID_159_);}
	.st159{fill:url(#SVGID_160_);}
	.st160{fill:url(#SVGID_161_);}
	.st161{fill:url(#SVGID_162_);}
	.st162{fill:url(#SVGID_163_);}
	.st163{fill:url(#SVGID_164_);}
	.st164{fill:url(#SVGID_165_);}
	.st165{fill:url(#SVGID_166_);}
	.st166{fill:url(#SVGID_167_);}
	.st167{fill:url(#SVGID_168_);}
	.st168{fill:url(#SVGID_169_);}
	.st169{fill:url(#SVGID_170_);}
	.st170{fill:url(#SVGID_171_);}
	.st171{fill:url(#SVGID_172_);}
	.st172{fill:url(#SVGID_173_);}
	.st173{fill:url(#SVGID_174_);}
	.st174{fill:url(#SVGID_175_);}
	.st175{fill:url(#SVGID_176_);}
	.st176{fill:url(#SVGID_177_);}
	.st177{fill:url(#SVGID_178_);}
	.st178{fill:url(#SVGID_179_);}
	.st179{fill:url(#SVGID_180_);}
	.st180{fill:url(#SVGID_181_);}
	.st181{fill:url(#SVGID_182_);}
	.st182{fill:url(#SVGID_183_);}
	.st183{fill:url(#SVGID_184_);}
	.st184{fill:url(#SVGID_185_);}
	.st185{fill:url(#SVGID_186_);}
	.st186{fill:url(#SVGID_187_);}
	.st187{fill:url(#SVGID_188_);}
	.st188{fill:url(#SVGID_189_);}
	.st189{fill:url(#SVGID_190_);}
	.st190{fill:url(#SVGID_191_);}
	.st191{fill:url(#SVGID_192_);}
	.st192{fill:url(#SVGID_193_);}
	.st193{fill:url(#SVGID_194_);}
	.st194{fill:url(#SVGID_195_);}
	.st195{fill:url(#SVGID_196_);}
	.st196{fill:url(#SVGID_197_);}
	.st197{fill:url(#SVGID_198_);}
	.st198{fill:url(#SVGID_199_);}
	.st199{fill:url(#SVGID_200_);}
	.st200{fill:url(#SVGID_201_);}
	.st201{fill:url(#SVGID_202_);}
	.st202{fill:url(#SVGID_203_);}
	.st203{fill:url(#SVGID_204_);}
	.st204{fill:url(#SVGID_205_);}
	.st205{fill:url(#SVGID_206_);}
	.st206{fill:url(#SVGID_207_);}
	.st207{fill:url(#SVGID_208_);}
	.st208{fill:url(#SVGID_209_);}
	.st209{fill:url(#SVGID_210_);}
	.st210{fill:url(#SVGID_211_);}
	.st211{fill:url(#SVGID_212_);}
	.st212{fill:url(#SVGID_213_);}
	.st213{fill:url(#SVGID_214_);}
	.st214{fill:url(#SVGID_215_);}
	.st215{fill:url(#SVGID_216_);}
	.st216{fill:url(#SVGID_217_);}
	.st217{fill:url(#SVGID_218_);}
	.st218{fill:url(#SVGID_219_);}
	.st219{fill:url(#SVGID_220_);}
	.st220{fill:url(#SVGID_221_);}
	.st221{fill:url(#SVGID_222_);}
	.st222{fill:url(#SVGID_223_);}
	.st223{fill:url(#SVGID_224_);}
	.st224{fill:url(#SVGID_225_);}
	.st225{fill:url(#SVGID_226_);}
	.st226{fill:url(#SVGID_227_);}
	.st227{fill:url(#SVGID_228_);}
	.st228{fill:url(#SVGID_229_);}
	.st229{fill:url(#SVGID_230_);}
	.st230{fill:url(#SVGID_231_);}
	.st231{fill:url(#SVGID_232_);}
	.st232{fill:url(#SVGID_233_);}
	.st233{fill:url(#SVGID_234_);}
	.st234{fill:url(#SVGID_235_);}
	.st235{fill:url(#SVGID_236_);}
	.st236{fill:url(#SVGID_237_);}
	.st237{fill:url(#SVGID_238_);}
	.st238{fill:url(#SVGID_239_);}
	.st239{fill:url(#SVGID_240_);}
	.st240{fill:url(#SVGID_241_);}
	.st241{fill:url(#SVGID_242_);}
	.st242{fill:url(#SVGID_243_);}
	.st243{fill:url(#SVGID_244_);}
	.st244{fill:url(#SVGID_245_);}
	.st245{fill:url(#SVGID_246_);}
	.st246{fill:url(#SVGID_247_);}
	.st247{fill:url(#SVGID_248_);}
	.st248{fill:url(#SVGID_249_);}
	.st249{fill:url(#SVGID_250_);}
	.st250{fill:url(#SVGID_251_);}
	.st251{fill:url(#SVGID_252_);}
	.st252{fill:url(#SVGID_253_);}
	.st253{fill:url(#SVGID_254_);}
	.st254{fill:url(#SVGID_255_);}
	.st255{stroke:url(#SVGID_256_);stroke-width:0.4951;stroke-miterlimit:10;}
	.st256{stroke:url(#SVGID_257_);stroke-width:0.4951;stroke-miterlimit:10;}
	.st257{stroke:url(#SVGID_258_);stroke-width:0.4951;stroke-miterlimit:10;}
	.st258{stroke:url(#SVGID_259_);stroke-width:0.4951;stroke-miterlimit:10;}
	.st259{stroke:url(#SVGID_260_);stroke-width:0.4951;stroke-miterlimit:10;}
	.st260{fill:url(#SVGID_261_);}
	.st261{fill:#C7AA76;}
	.st262{fill:url(#SVGID_262_);}
	.st263{fill:#8C6B29;}
	.st264{fill:url(#SVGID_263_);}
	.st265{fill:url(#SVGID_264_);}
	.st266{fill:url(#SVGID_265_);}
	.st267{fill:url(#SVGID_266_);}
	.st268{fill:url(#SVGID_267_);}
	.st269{fill:#DADADA;}
	.st270{fill:url(#SVGID_268_);}
	.st271{fill:url(#SVGID_269_);}
	.st272{fill:url(#SVGID_270_);}
	.st273{fill:#95C11F;}
	.st274{clip-path:url(#SVGID_272_);fill:#95C11F;stroke:#8B523E;stroke-width:1.2615;stroke-miterlimit:10;}
	.st275{clip-path:url(#SVGID_274_);fill:#95C11F;stroke:#8B523E;stroke-width:1.2615;stroke-miterlimit:10;}
	.st276{clip-path:url(#SVGID_276_);fill:#95C11F;stroke:#8B523E;stroke-width:1.2615;stroke-miterlimit:10;}
	.st277{clip-path:url(#SVGID_280_);fill:#95C11F;stroke:#8B523E;stroke-width:1.2615;stroke-miterlimit:10;}
	.st278{clip-path:url(#SVGID_282_);fill:#95C11F;stroke:#8B523E;stroke-width:1.2615;stroke-miterlimit:10;}
</style>
<g id="Layer_1_1_">
	<g>
		<path class="st273" d="M37.2,35.3l2.5,0c0,0,9.1,7.7,12.6,17.3c3.6,9.6,3.6,17.4,3.6,17.4L49,70c0,0,1.4-6.4-2.5-17.4
			C43.1,42.7,37.2,35.3,37.2,35.3z"/>
		<g>
			<g>
				<g>
					<defs>
						<path id="SVGID_271_" d="M37.2,35.3l2.5,0c0,0,9.1,7.7,12.6,17.3c3.6,9.6,3.6,17.4,3.6,17.4L49,70c0,0,1.4-6.4-2.5-17.4
							C43.1,42.7,37.2,35.3,37.2,35.3z"/>
					</defs>
					<use xlink:href="#SVGID_271_"  style="overflow:visible;fill:#95C11F;"/>
					<clipPath id="SVGID_1_">
						<use xlink:href="#SVGID_271_"  style="overflow:visible;"/>
					</clipPath>
					
						<line style="clip-path:url(#SVGID_1_);fill:#95C11F;stroke:#8B523E;stroke-width:1.2615;stroke-miterlimit:10;" x1="40.4" y1="44.3" x2="47.6" y2="40.5"/>
				</g>
			</g>
			<g>
				<g>
					<defs>
						<path id="SVGID_273_" d="M37.2,35.3l2.5,0c0,0,9.1,7.7,12.6,17.3c3.6,9.6,3.6,17.4,3.6,17.4L49,70c0,0,1.4-6.4-2.5-17.4
							C43.1,42.7,37.2,35.3,37.2,35.3z"/>
					</defs>
					<use xlink:href="#SVGID_273_"  style="overflow:visible;fill:#95C11F;"/>
					<clipPath id="SVGID_2_">
						<use xlink:href="#SVGID_273_"  style="overflow:visible;"/>
					</clipPath>
					
						<line style="clip-path:url(#SVGID_2_);fill:#95C11F;stroke:#8B523E;stroke-width:1.2615;stroke-miterlimit:10;" x1="43.7" y1="49.9" x2="51" y2="46.7"/>
				</g>
			</g>
			<g>
				<g>
					<defs>
						<path id="SVGID_275_" d="M37.2,35.3l2.5,0c0,0,9.1,7.7,12.6,17.3c3.6,9.6,3.6,17.4,3.6,17.4L49,70c0,0,1.4-6.4-2.5-17.4
							C43.1,42.7,37.2,35.3,37.2,35.3z"/>
					</defs>
					<use xlink:href="#SVGID_275_"  style="overflow:visible;fill:#95C11F;"/>
					<clipPath id="SVGID_3_">
						<use xlink:href="#SVGID_275_"  style="overflow:visible;"/>
					</clipPath>
					
						<line style="clip-path:url(#SVGID_3_);fill:#95C11F;stroke:#8B523E;stroke-width:1.2615;stroke-miterlimit:10;" x1="46.7" y1="54.8" x2="53.9" y2="52.9"/>
				</g>
			</g>
			<g>
				<g>
					<defs>
						<path id="SVGID_277_" d="M37.2,35.3l2.5,0c0,0,9.1,7.7,12.6,17.3c3.6,9.6,3.6,17.4,3.6,17.4L49,70c0,0,1.4-6.4-2.5-17.4
							C43.1,42.7,37.2,35.3,37.2,35.3z"/>
					</defs>
					<use xlink:href="#SVGID_277_"  style="overflow:visible;fill:#95C11F;"/>
					<clipPath id="SVGID_4_">
						<use xlink:href="#SVGID_277_"  style="overflow:visible;"/>
					</clipPath>
				</g>
			</g>
		</g>
		<path class="st273" d="M23.6,50.1l3.3,2.1l4-3.7L29,45.1l3.3,2.1l4-3.7l-1.9-3.4l3.3,2.1l3.7-3.5c-3.2-3.4-10.1-1.9-15.4,3.1
			s-7.2,11.9-4,15.2l3.7-3.5L23.6,50.1z"/>
		<path class="st273" d="M47.4,35.4l0.7,3.8l5.4,0.3l1.1-3.7l0.7,3.8l5.4,0.3l1.1-3.7l0.7,3.8l5.1,0.3c0.3-4.6-5.5-8.7-12.9-9.1
			c-7.4-0.4-13.6,3-13.8,7.6l5.1,0.3L47.4,35.4z"/>
		<path class="st273" d="M20.7,34.1l0.8,3.8l5.5,0.2l1.1-3.7l0.8,3.8l5.5,0.2l1.1-3.7l0.8,3.8l5.1,0.2c0.2-4.6-5.6-8.6-13-8.9
			S14.7,33,14.5,37.6l5.1,0.2L20.7,34.1z"/>
		<path class="st273" d="M41.8,31.7l3.6,1.5l3.3-4.4l-2.5-3l3.6,1.5L53,23l-2.5-3l3.6,1.5l3.1-4.1c-3.7-2.8-10.3-0.2-14.7,5.7
			s-5,12.9-1.3,15.7l3.1-4.1L41.8,31.7z"/>
		<path class="st273" d="M71.3,48.7l-2.1,0c0,0-7.5,6.6-10.3,14.7S56.1,78,56.1,78l5.8-0.1c0,0-1.3-5.3,1.8-14.6
			C66.5,55,71.3,48.7,71.3,48.7z"/>
		<g>
			<g>
				<g>
					<defs>
						<path id="SVGID_279_" d="M71.3,48.7l-2.1,0c0,0-7.5,6.6-10.3,14.7S56.1,78,56.1,78l5.8-0.1c0,0-1.3-5.3,1.8-14.6
							C66.5,55,71.3,48.7,71.3,48.7z"/>
					</defs>
					<use xlink:href="#SVGID_279_"  style="overflow:visible;fill:#95C11F;"/>
					<clipPath id="SVGID_5_">
						<use xlink:href="#SVGID_279_"  style="overflow:visible;"/>
					</clipPath>
					
						<line style="clip-path:url(#SVGID_5_);fill:#95C11F;stroke:#8B523E;stroke-width:1.2615;stroke-miterlimit:10;" x1="57.5" y1="63.7" x2="65.2" y2="65.3"/>
				</g>
			</g>
			<g>
				<g>
					<defs>
						<path id="SVGID_281_" d="M71.3,48.7l-2.1,0c0,0-7.5,6.6-10.3,14.7S56.1,78,56.1,78l5.8-0.1c0,0-1.3-5.3,1.8-14.6
							C66.5,55,71.3,48.7,71.3,48.7z"/>
					</defs>
					<use xlink:href="#SVGID_281_"  style="overflow:visible;fill:#95C11F;"/>
					<clipPath id="SVGID_6_">
						<use xlink:href="#SVGID_281_"  style="overflow:visible;"/>
					</clipPath>
					
						<line style="clip-path:url(#SVGID_6_);fill:#95C11F;stroke:#8B523E;stroke-width:1.2615;stroke-miterlimit:10;" x1="59.3" y1="57.6" x2="66.9" y2="60"/>
				</g>
			</g>
			<g>
				<g>
					<defs>
						<path id="SVGID_283_" d="M71.3,48.7l-2.1,0c0,0-7.5,6.6-10.3,14.7S56.1,78,56.1,78l5.8-0.1c0,0-1.3-5.3,1.8-14.6
							C66.5,55,71.3,48.7,71.3,48.7z"/>
					</defs>
					<use xlink:href="#SVGID_283_"  style="overflow:visible;fill:#95C11F;"/>
					<clipPath id="SVGID_7_">
						<use xlink:href="#SVGID_283_"  style="overflow:visible;"/>
					</clipPath>
				</g>
			</g>
		</g>
		<path class="st273" d="M76.1,63l-2.5,0.5l-1.6-3.2l1.9-1.6l-2.5,0.5L70,56l1.9-1.6l-2.5,0.5l-1.5-3c2.7-1.3,6.6,1.1,8.7,5.5
			s1.6,8.9-1.1,10.3l-1.5-3L76.1,63z"/>
		<path class="st273" d="M63.9,49.7l-0.4,2.5l-3.6,0.3L59.1,50l-0.4,2.5l-3.6,0.3l-0.8-2.4l-0.4,2.5l-3.3,0.2
			c-0.2-3,3.5-5.7,8.3-6.1c4.8-0.4,8.9,1.8,9.1,4.8l-3.3,0.2L63.9,49.7z"/>
		<path class="st273" d="M81.3,48.5L80.9,51l-3.6,0.2l-0.8-2.4l-0.5,2.5l-3.6,0.2l-0.8-2.4l-0.5,2.5L68,51.8c-0.2-3,3.6-5.7,8.4-6
			c4.8-0.3,8.9,1.9,9.1,4.9L82.1,51L81.3,48.5z"/>
		<path class="st273" d="M67.5,47.2l-2.3,1L63,45.4l1.6-2l-2.3,1l-2.2-2.8l1.6-2l-2.3,1l-2-2.6c2.4-1.9,6.7-0.3,9.7,3.6
			c3,3.8,3.4,8.4,1.1,10.3l-2-2.6L67.5,47.2z"/>
		<path class="st273" d="M82.4,83.2c-3.9-8.7-13.9-14.8-25.7-14.7C44.9,68.7,34.9,75,31.2,83.7L82.4,83.2z"/>
	</g>
</g>
</svg>
