<?xml version="1.0" encoding="utf-8"?>
<!-- Generator: Adobe Illustrator 22.1.0, SVG Export Plug-In . SVG Version: 6.00 Build 0)  -->
<svg version="1.1" id="Layer_1" xmlns="http://www.w3.org/2000/svg" xmlns:xlink="http://www.w3.org/1999/xlink" x="0px" y="0px"
	 viewBox="0 0 100 100" style="enable-background:new 0 0 100 100;" xml:space="preserve">
<style type="text/css">
	.st0{fill:url(#SVGID_1_);stroke:#604C3F;stroke-width:8.912060e-02;stroke-miterlimit:10;}
	.st1{fill:url(#SVGID_2_);}
	.st2{fill:url(#SVGID_3_);}
	.st3{fill:url(#SVGID_4_);}
	.st4{fill:url(#SVGID_5_);}
	.st5{fill:url(#SVGID_6_);}
	.st6{fill:url(#SVGID_7_);}
	.st7{fill:url(#SVGID_8_);}
	.st8{fill:url(#SVGID_9_);}
	.st9{fill:url(#SVGID_10_);}
	.st10{fill:url(#SVGID_11_);}
	.st11{fill:url(#SVGID_12_);}
	.st12{fill:url(#SVGID_13_);}
	.st13{fill:url(#SVGID_14_);}
	.st14{fill:url(#SVGID_15_);}
	.st15{fill:url(#SVGID_16_);}
	.st16{fill:url(#SVGID_17_);}
	.st17{fill:url(#SVGID_18_);}
	.st18{fill:url(#SVGID_19_);}
	.st19{fill:url(#SVGID_20_);}
	.st20{fill:url(#SVGID_21_);}
	.st21{fill:url(#SVGID_22_);}
	.st22{fill:url(#SVGID_23_);}
	.st23{fill:url(#SVGID_24_);}
	.st24{fill:url(#SVGID_25_);}
	.st25{fill:url(#SVGID_26_);}
	.st26{fill:url(#SVGID_27_);}
	.st27{fill:url(#SVGID_28_);}
	.st28{fill:url(#SVGID_29_);}
	.st29{fill:url(#SVGID_30_);}
	.st30{fill:url(#SVGID_31_);}
	.st31{fill:url(#SVGID_32_);}
	.st32{fill:url(#SVGID_33_);}
	.st33{fill:url(#SVGID_34_);}
	.st34{fill:url(#SVGID_35_);}
	.st35{fill:url(#SVGID_36_);}
	.st36{fill:url(#SVGID_37_);}
	.st37{fill:url(#SVGID_38_);}
	.st38{fill:url(#SVGID_39_);}
	.st39{fill:url(#SVGID_40_);}
	.st40{fill:url(#SVGID_41_);}
	.st41{fill:url(#SVGID_42_);}
	.st42{fill:url(#SVGID_43_);}
	.st43{fill:url(#SVGID_44_);}
	.st44{fill:url(#SVGID_45_);}
	.st45{fill:url(#SVGID_46_);}
	.st46{fill:url(#SVGID_47_);}
	.st47{fill:url(#SVGID_48_);}
	.st48{fill:url(#SVGID_49_);}
	.st49{fill:url(#SVGID_50_);}
	.st50{fill:url(#SVGID_51_);}
	.st51{fill:url(#SVGID_52_);}
	.st52{fill:url(#SVGID_53_);}
	.st53{fill:url(#SVGID_54_);}
	.st54{fill:url(#SVGID_55_);}
	.st55{fill:url(#SVGID_56_);}
	.st56{fill:url(#SVGID_57_);}
	.st57{fill:url(#SVGID_58_);}
	.st58{fill:url(#SVGID_59_);}
	.st59{fill:url(#SVGID_60_);}
	.st60{fill:url(#SVGID_61_);}
	.st61{fill:url(#SVGID_62_);}
	.st62{fill:url(#SVGID_63_);}
	.st63{fill:url(#SVGID_64_);}
	.st64{fill:url(#SVGID_65_);}
	.st65{fill:url(#SVGID_66_);}
	.st66{fill:url(#SVGID_67_);}
	.st67{fill:url(#SVGID_68_);}
	.st68{fill:url(#SVGID_69_);}
	.st69{fill:url(#SVGID_70_);}
	.st70{fill:url(#SVGID_71_);}
	.st71{fill:url(#SVGID_72_);}
	.st72{fill:url(#SVGID_73_);}
	.st73{fill:url(#SVGID_74_);}
	.st74{fill:url(#SVGID_75_);}
	.st75{fill:url(#SVGID_76_);}
	.st76{fill:url(#SVGID_77_);}
	.st77{fill:url(#SVGID_78_);}
	.st78{fill:url(#SVGID_79_);}
	.st79{fill:url(#SVGID_80_);}
	.st80{fill:url(#SVGID_81_);}
	.st81{fill:url(#SVGID_82_);}
	.st82{fill:url(#SVGID_83_);}
	.st83{fill:url(#SVGID_84_);}
	.st84{fill:url(#SVGID_85_);}
	.st85{fill:url(#SVGID_86_);}
	.st86{fill:url(#SVGID_87_);}
	.st87{fill:url(#SVGID_88_);}
	.st88{fill:url(#SVGID_89_);}
	.st89{fill:url(#SVGID_90_);}
	.st90{fill:url(#SVGID_91_);}
	.st91{fill:url(#SVGID_92_);}
	.st92{fill:url(#SVGID_93_);}
	.st93{fill:url(#SVGID_94_);}
	.st94{fill:url(#SVGID_95_);}
	.st95{fill:url(#SVGID_96_);}
	.st96{fill:url(#SVGID_97_);}
	.st97{fill:url(#SVGID_98_);}
	.st98{fill:url(#SVGID_99_);}
	.st99{fill:url(#SVGID_100_);}
	.st100{fill:url(#SVGID_101_);}
	.st101{fill:url(#SVGID_102_);}
	.st102{fill:url(#SVGID_103_);}
	.st103{fill:url(#SVGID_104_);}
	.st104{fill:url(#SVGID_105_);}
	.st105{fill:url(#SVGID_106_);}
	.st106{fill:url(#SVGID_107_);}
	.st107{fill:url(#SVGID_108_);}
	.st108{fill:url(#SVGID_109_);}
	.st109{fill:url(#SVGID_110_);}
	.st110{fill:url(#SVGID_111_);}
	.st111{fill:url(#SVGID_112_);}
	.st112{fill:url(#SVGID_113_);}
	.st113{fill:url(#SVGID_114_);}
	.st114{fill:url(#SVGID_115_);}
	.st115{fill:url(#SVGID_116_);}
	.st116{fill:url(#SVGID_117_);}
	.st117{fill:url(#SVGID_118_);}
	.st118{fill:url(#SVGID_119_);}
	.st119{fill:url(#SVGID_120_);}
	.st120{fill:url(#SVGID_121_);}
	.st121{fill:url(#SVGID_122_);}
	.st122{fill:url(#SVGID_123_);}
	.st123{fill:url(#SVGID_124_);}
	.st124{fill:url(#SVGID_125_);}
	.st125{fill:url(#SVGID_126_);}
	.st126{fill:url(#SVGID_127_);}
	.st127{fill:url(#SVGID_128_);}
	.st128{fill:url(#SVGID_129_);}
	.st129{fill:url(#SVGID_130_);}
	.st130{fill:url(#SVGID_131_);}
	.st131{fill:url(#SVGID_132_);}
	.st132{fill:url(#SVGID_133_);}
	.st133{fill:url(#SVGID_134_);}
	.st134{fill:url(#SVGID_135_);}
	.st135{fill:url(#SVGID_136_);}
	.st136{fill:url(#SVGID_137_);}
	.st137{fill:url(#SVGID_138_);}
	.st138{fill:url(#SVGID_139_);}
	.st139{fill:url(#SVGID_140_);}
	.st140{fill:url(#SVGID_141_);}
	.st141{fill:url(#SVGID_142_);}
	.st142{fill:url(#SVGID_143_);}
	.st143{fill:url(#SVGID_144_);}
	.st144{fill:url(#SVGID_145_);}
	.st145{fill:url(#SVGID_146_);}
	.st146{fill:url(#SVGID_147_);}
	.st147{fill:url(#SVGID_148_);}
	.st148{fill:url(#SVGID_149_);}
	.st149{fill:url(#SVGID_150_);}
	.st150{fill:url(#SVGID_151_);}
	.st151{fill:url(#SVGID_152_);}
	.st152{fill:url(#SVGID_153_);}
	.st153{fill:url(#SVGID_154_);}
	.st154{fill:url(#SVGID_155_);}
	.st155{fill:url(#SVGID_156_);}
	.st156{fill:url(#SVGID_157_);}
	.st157{fill:url(#SVGID_158_);}
	.st158{fill:url(#SVGID_159_);}
	.st159{fill:url(#SVGID_160_);}
	.st160{fill:url(#SVGID_161_);}
	.st161{fill:url(#SVGID_162_);}
	.st162{fill:url(#SVGID_163_);}
	.st163{fill:url(#SVGID_164_);}
	.st164{fill:url(#SVGID_165_);}
	.st165{fill:url(#SVGID_166_);}
	.st166{fill:url(#SVGID_167_);}
	.st167{fill:url(#SVGID_168_);}
	.st168{fill:url(#SVGID_169_);}
	.st169{fill:url(#SVGID_170_);}
	.st170{fill:url(#SVGID_171_);}
	.st171{fill:url(#SVGID_172_);}
	.st172{fill:url(#SVGID_173_);}
	.st173{fill:url(#SVGID_174_);}
	.st174{fill:url(#SVGID_175_);}
	.st175{fill:url(#SVGID_176_);}
	.st176{fill:url(#SVGID_177_);}
	.st177{fill:url(#SVGID_178_);}
	.st178{fill:url(#SVGID_179_);}
	.st179{fill:url(#SVGID_180_);}
	.st180{fill:url(#SVGID_181_);}
	.st181{fill:url(#SVGID_182_);}
	.st182{fill:url(#SVGID_183_);}
	.st183{fill:url(#SVGID_184_);}
	.st184{fill:url(#SVGID_185_);}
	.st185{fill:url(#SVGID_186_);}
	.st186{fill:url(#SVGID_187_);}
	.st187{fill:url(#SVGID_188_);}
	.st188{fill:url(#SVGID_189_);}
	.st189{fill:url(#SVGID_190_);}
	.st190{fill:url(#SVGID_191_);}
	.st191{fill:url(#SVGID_192_);}
	.st192{fill:url(#SVGID_193_);}
	.st193{fill:url(#SVGID_194_);}
	.st194{fill:url(#SVGID_195_);}
	.st195{fill:url(#SVGID_196_);}
	.st196{fill:url(#SVGID_197_);}
	.st197{fill:url(#SVGID_198_);}
	.st198{fill:url(#SVGID_199_);}
	.st199{fill:url(#SVGID_200_);}
	.st200{fill:url(#SVGID_201_);}
	.st201{fill:url(#SVGID_202_);}
	.st202{fill:url(#SVGID_203_);}
	.st203{fill:url(#SVGID_204_);}
	.st204{fill:url(#SVGID_205_);}
	.st205{fill:url(#SVGID_206_);}
	.st206{fill:url(#SVGID_207_);}
	.st207{fill:url(#SVGID_208_);}
	.st208{fill:url(#SVGID_209_);}
	.st209{fill:url(#SVGID_210_);}
	.st210{fill:url(#SVGID_211_);}
	.st211{fill:url(#SVGID_212_);}
	.st212{fill:url(#SVGID_213_);}
	.st213{fill:url(#SVGID_214_);}
	.st214{fill:url(#SVGID_215_);}
	.st215{fill:url(#SVGID_216_);}
	.st216{fill:url(#SVGID_217_);}
	.st217{fill:url(#SVGID_218_);}
	.st218{fill:url(#SVGID_219_);}
	.st219{fill:url(#SVGID_220_);}
	.st220{fill:url(#SVGID_221_);}
	.st221{fill:url(#SVGID_222_);}
	.st222{fill:url(#SVGID_223_);}
	.st223{fill:url(#SVGID_224_);}
	.st224{fill:url(#SVGID_225_);}
	.st225{fill:url(#SVGID_226_);}
	.st226{fill:url(#SVGID_227_);}
	.st227{fill:url(#SVGID_228_);}
	.st228{fill:url(#SVGID_229_);}
	.st229{fill:url(#SVGID_230_);}
	.st230{fill:url(#SVGID_231_);}
	.st231{fill:url(#SVGID_232_);}
	.st232{fill:url(#SVGID_233_);}
	.st233{fill:url(#SVGID_234_);}
	.st234{fill:url(#SVGID_235_);}
	.st235{fill:url(#SVGID_236_);}
	.st236{fill:url(#SVGID_237_);}
	.st237{fill:url(#SVGID_238_);}
	.st238{fill:url(#SVGID_239_);}
	.st239{fill:url(#SVGID_240_);}
	.st240{fill:url(#SVGID_241_);}
	.st241{fill:url(#SVGID_242_);}
	.st242{fill:url(#SVGID_243_);}
	.st243{fill:url(#SVGID_244_);}
	.st244{fill:url(#SVGID_245_);}
	.st245{fill:url(#SVGID_246_);}
	.st246{fill:url(#SVGID_247_);}
	.st247{fill:url(#SVGID_248_);}
	.st248{fill:url(#SVGID_249_);}
	.st249{fill:url(#SVGID_250_);}
	.st250{fill:url(#SVGID_251_);}
	.st251{fill:url(#SVGID_252_);}
	.st252{fill:url(#SVGID_253_);}
	.st253{fill:url(#SVGID_254_);}
	.st254{fill:url(#SVGID_255_);}
	.st255{stroke:url(#SVGID_256_);stroke-width:0.4951;stroke-miterlimit:10;}
	.st256{stroke:url(#SVGID_257_);stroke-width:0.4951;stroke-miterlimit:10;}
	.st257{stroke:url(#SVGID_258_);stroke-width:0.4951;stroke-miterlimit:10;}
	.st258{stroke:url(#SVGID_259_);stroke-width:0.4951;stroke-miterlimit:10;}
	.st259{stroke:url(#SVGID_260_);stroke-width:0.4951;stroke-miterlimit:10;}
	.st260{fill:url(#SVGID_261_);}
	.st261{fill:#C7AA76;}
	.st262{fill:url(#SVGID_262_);}
	.st263{fill:#8C6B29;}
	.st264{fill:url(#SVGID_263_);}
	.st265{fill:url(#SVGID_264_);}
	.st266{fill:url(#SVGID_265_);}
	.st267{fill:url(#SVGID_266_);}
	.st268{fill:url(#SVGID_267_);}
	.st269{fill:#DADADA;}
	.st270{fill:url(#SVGID_268_);}
	.st271{fill:url(#SVGID_269_);}
	.st272{fill:url(#SVGID_270_);}
	.st273{fill:#95C11F;}
	.st274{clip-path:url(#SVGID_272_);fill:#95C11F;stroke:#8B523E;stroke-width:1.2615;stroke-miterlimit:10;}
	.st275{clip-path:url(#SVGID_274_);fill:#95C11F;stroke:#8B523E;stroke-width:1.2615;stroke-miterlimit:10;}
	.st276{clip-path:url(#SVGID_276_);fill:#95C11F;stroke:#8B523E;stroke-width:1.2615;stroke-miterlimit:10;}
	.st277{clip-path:url(#SVGID_280_);fill:#95C11F;stroke:#8B523E;stroke-width:1.2615;stroke-miterlimit:10;}
	.st278{clip-path:url(#SVGID_282_);fill:#95C11F;stroke:#8B523E;stroke-width:1.2615;stroke-miterlimit:10;}
</style>
<g>
	<g>
		<linearGradient id="SVGID_1_" gradientUnits="userSpaceOnUse" x1="33.69" y1="86.8339" x2="33.69" y2="27.5779">
			<stop  offset="0" style="stop-color:#FFFFFF"/>
			<stop  offset="0" style="stop-color:#575756"/>
			<stop  offset="0.5044" style="stop-color:#C6C6C6"/>
			<stop  offset="1" style="stop-color:#575756"/>
		</linearGradient>
		<path style="fill:url(#SVGID_1_);" d="M24.3,25.4c1,1.2,2,2.3,2.9,3.6c7.5,9.8,8.2,20.5,2.1,30.8c-0.1,0.2-0.2,0.4-0.3,0.6
			l-0.2,0.5c-0.2,0.4-0.1,0.9,0.2,1.2c0.2,0.2,0.4,0.3,0.7,0.3c0.2,0,0.4-0.1,0.6-0.2c4-2.7,8.2-4.2,11.6-5.3
			c0.7-0.2,1.5-0.8,1.7-1.6c1.1-4.3,1.4-8.5,0.9-12.5c-0.8-5.4-3.2-10.4-7.8-15.8c-0.3-0.3-0.6-0.7-1.1-0.9
			c-3.1-1.1-6.1-2.2-9.2-3.3L24.1,22c-0.1,0-0.2-0.1-0.3-0.1c-0.4,0-0.8,0.2-0.9,0.6l-0.1,0.2c-0.1,0.3-0.1,0.7,0.2,1
			C23.4,24.3,23.8,24.9,24.3,25.4z"/>
		<linearGradient id="SVGID_2_" gradientUnits="userSpaceOnUse" x1="50" y1="86.8339" x2="50" y2="27.5779">
			<stop  offset="0" style="stop-color:#FFFFFF"/>
			<stop  offset="0" style="stop-color:#575756"/>
			<stop  offset="0.5044" style="stop-color:#C6C6C6"/>
			<stop  offset="1" style="stop-color:#575756"/>
		</linearGradient>
		<path class="st1" d="M85.4,57.4c-0.7-1.7-1.5-3.4-2.3-5c-0.6-1.2-1.1-2.3-1.7-3.5c-0.5-1.2-0.9-2.4-1-3.7c0-0.1,0-0.2,0-0.2
			c0.1-0.1,0.3-0.2,0.7-0.3l0.1,0c0.3,0,0.4,0,0.5,0.5l0.1,0.3c0,0.2,0.1,0.3,0.1,0.5c0.2,1.4,1.1,2.2,2.5,2.2c0.1,0,0.3,0,0.4,0
			c0.3,0,0.7-0.1,1-0.1l0.5,0c0.3,0,0.5-0.2,0.7-0.4c0.2-0.2,0.2-0.5,0.2-0.8l-1.7-12.6c0-0.3-0.2-0.6-0.5-0.7
			c-0.2-0.1-0.3-0.1-0.5-0.1c-0.1,0-0.3,0-0.4,0.1c-0.5,0.2-0.9,0.4-1.4,0.6c-1.1,0.4-2.2,0.9-3.3,1.5c-1,0.5-2.3,1.3-3.3,2.5
			c-2.1,2.4-2.6,5.5-1.5,9.2l-0.2,0c-0.5,0.1-0.8,0.5-0.9,0.9c-0.1,3-0.9,5.8-2.4,8.3c-0.8,1.3-1.7,2.5-2.7,3.5
			c2.4-6,2.2-11.3-0.4-16.1c-2.4-4.4-5.2-7-8.8-8.4c-0.1,0-0.2-0.1-0.4-0.1c-0.2,0-0.4,0.1-0.6,0.2C58.1,36,58,36.3,58,36.6
			c0,0.5,0.2,0.8,0.4,1c4.1,5.6,5.5,11.2,4.1,16.9c-0.2,0.7,0.3,1.6,0.8,1.9c1.6,1,2.5,2.5,2.8,4.4c0.1,0.3,0.2,0.6,0.5,0.7
			c-0.2,0.2-0.4,0.3-0.6,0.5c-1.6-3.5-4-5.2-7.4-5.2c-0.1,0-0.2,0-0.3,0c-4.1,0.1-6.7,2.3-7.9,6.3c-1.1-1.2-2.5-1.8-4.1-1.8
			c-0.1,0-0.2,0-0.4,0c-1.7,0.1-3.8,0.8-5.1,3.5c-1.1-0.9-2.3-1.4-3.5-1.4c-2.1,0-3.9,1.4-4.9,3.5c-4.5-1.2-8.8-2.3-11.6-6.3
			c-0.1-0.1-0.2-0.3-0.4-0.3c0.4-1.9,0.8-3.9-0.1-6c-0.7-1.6-2.2-2.6-3.8-2.6c-0.7,0-1.3,0.2-1.9,0.5c-1.6,0.8-2.3,2.7-1.6,4.5
			c0.5,1.2,1.7,2,3,2c0.4,0,0.7-0.1,1-0.2c-0.2,0.9-0.5,1.8-0.7,2.6c-0.4,1.5-0.8,3-1.1,4.5c-1.1,5.6,1.7,10.2,7.1,11.9
			c0.1,0,0.2,0,0.3,0c0.3,0,2.7,0.5,4,0.5c0.5,0,0.9,0,1.4-0.1c0.5-0.1,2.1,0,2.5,0c0.6,0,1.3,0,1.9,0c0.6,0,1.1,0,1.7,0
			c1.1,0,1.9,0,2.7-0.1c0.6,0,2.2,0,2.6,0l4.6,0c1.1,0,2.3,0,3.5,0c0.7,0,9.8,0,9.8,0c3,0,6.1,0,9.1,0c0.3,0,3-0.3,3.4-0.3
			c0,0,0,0,0,0c4-0.1,7.6-1,10.9-2.8c4.7-2.6,6.8-6.3,6.3-10.9C86.8,61.8,86.2,59.6,85.4,57.4z M37.2,66.1
			C37.2,66.1,37.2,66.1,37.2,66.1v-0.3l0,0V66.1z M46.2,63.9l0,0.7c0,0,0,0,0,0V63.9L46.2,63.9z"/>
		<linearGradient id="SVGID_3_" gradientUnits="userSpaceOnUse" x1="51.8587" y1="86.8339" x2="51.8587" y2="27.5779">
			<stop  offset="0" style="stop-color:#FFFFFF"/>
			<stop  offset="0" style="stop-color:#575756"/>
			<stop  offset="0.5044" style="stop-color:#C6C6C6"/>
			<stop  offset="1" style="stop-color:#575756"/>
		</linearGradient>
		<path class="st2" d="M49,53.6c-0.1,0.3,0,0.6,0.2,0.8c0.2,0.2,0.5,0.4,0.8,0.4l3.1,0c1.5,0,3,0,4.5,0c1.1,0,1.5-1.7,1.5-1.7
			c1.1-5.4,0.4-10.6-2.2-15.6c-1.6-3.1-3.6-4.8-6.4-5.6c-1.1-0.3-2.1-0.7-3.3-1.2c-0.6-0.2-1.2-0.5-1.8-0.8c-0.1,0-0.2-0.1-0.4-0.1
			c-0.3,0-0.6,0.1-0.8,0.4c-0.3,0.3-0.3,0.8,0,1.2C49,38.3,50.6,45.6,49,53.6z"/>
	</g>
	<g>
		<path class="st269" d="M79.4,61.7c-1-4.6-2.9-9-4.4-13.5c-0.1,0-0.3,0-0.4,0.1c-0.1,3.1-1,6.1-2.5,8.7c-1.6,2.7-3.7,4.9-6.5,6.5
			c-1.3-3.5-3.4-5.8-7.2-5.7c-4.7,0.2-6.8,3.3-7.4,7.9c-1.1-2.2-2.7-3.4-5-3.3c-2.6,0.1-4.1,1.8-4.8,4.3c-2.8-3.6-7-2.5-8.2,1.5
			c-4.9-1.3-9.8-2.3-13-7c-1.1,4-0.9,7.8,0.8,11.4c1.4,2.9,3.4,5,7,4.3c0.6-0.1,1.3-0.3,1.8-0.7c1.6-1.4,3.1-2.8,4.7-4.3
			c0.3,0.2,0.5,0.4,0.8,0.7c-1.5,1.4-2.9,2.8-4.6,4.3c2.3,0,4.3,0.1,6.2,0c0.6,0,1.3-0.4,1.7-0.8c1.3-1.5,2.6-3,4-4.8
			c0.3,0.3,0.6,0.6,0.8,0.9c-1.3,1.6-2.5,3.1-3.8,4.7c2.8,0,5.4,0,7.9,0c0.8,0,1.3-0.3,1.7-1c1.2-1.9,2.4-3.7,3.6-5.6
			c0.3,0.4,0.6,0.7,0.9,1c-1.1,1.8-2.3,3.5-3.5,5.4c0.3,0.1,0.4,0.1,0.5,0.1c5.2,0,10.5,0,15.7,0c0.3,0,0.7-0.1,1-0.2
			c2.2-1.2,4.6-2.3,6.7-3.8C78,70.3,80.5,66.6,79.4,61.7z M37.2,71.9c-1.6,0-2.9-1.4-2.9-3.1c0-1.7,1.3-3,2.9-3
			c1.6,0,2.9,1.4,2.9,3.1C40.1,70.6,38.8,72,37.2,71.9z M46.2,71.9c-2,0-3.8-1.9-3.8-4c0-2.1,1.8-4,3.8-4c2.1,0,3.7,1.8,3.7,4
			C50,70.1,48.2,71.9,46.2,71.9z M58.4,71.8c-3.3,0-5.9-2.8-6-6.2c0-3.4,2.7-6.3,5.9-6.3c3.2,0,6,2.9,6,6.2
			C64.3,69,61.7,71.8,58.4,71.8z"/>
	</g>
	<linearGradient id="SVGID_4_" gradientUnits="userSpaceOnUse" x1="15.8972" y1="56.2985" x2="50.6047" y2="21.591">
		<stop  offset="0" style="stop-color:#FFFFFF"/>
		<stop  offset="0" style="stop-color:#EDEDED"/>
		<stop  offset="1" style="stop-color:#575756"/>
	</linearGradient>
	<path class="st3" d="M30.2,60.3c-0.1,0.2-0.3,0.5-0.5,1c3.8-2.6,7.8-4.2,11.9-5.4c0.4-0.1,0.9-0.5,1-0.9c1.1-4,1.4-8,0.8-12.1
		c-0.8-5.9-3.8-10.8-7.6-15.2c-0.2-0.2-0.4-0.5-0.7-0.6c-3.8-1.4-7.6-2.7-11.4-4.1c0,0.1-0.1,0.2-0.1,0.2c1.5,1.7,3,3.4,4.4,5.2
		C35.8,38.6,36.5,49.6,30.2,60.3z"/>
	<path class="st269" d="M84.4,57.8c-1.1-2.9-2.7-5.6-3.9-8.5c-0.5-1.2-0.9-2.6-1.1-4c-0.1-0.9,0.6-1.5,1.6-1.6
		c0.9-0.1,1.5,0.4,1.7,1.3c0.1,0.3,0.1,0.5,0.2,0.8c0.2,1,0.8,1.4,1.8,1.3c0.5-0.1,1-0.1,1.6-0.1c-0.6-4.3-1.2-8.6-1.7-12.6
		c-1.6,0.7-3.1,1.2-4.6,2c-1.1,0.6-2.2,1.3-3.1,2.2c-2.3,2.6-2.1,5.7-1.1,8.7c1.1,3.1,2.5,6.1,3.7,9.2c1.2,3.1,2,6.3,1.1,9.7
		c-1.1,4.2-4.1,6.7-7.7,8.7c-0.5,0.3-1,0.6-1.6,0.9c-0.5,0.3-1,0.5-1.6,0.7c3.7-0.1,7.2-0.9,10.4-2.7c3.9-2.1,6.3-5.2,5.8-9.9
		C85.8,62,85.2,59.8,84.4,57.8z"/>
	<linearGradient id="SVGID_5_" gradientUnits="userSpaceOnUse" x1="41.8242" y1="51.8117" x2="85.3265" y2="8.3094">
		<stop  offset="0" style="stop-color:#FFFFFF"/>
		<stop  offset="0" style="stop-color:#EDEDED"/>
		<stop  offset="1" style="stop-color:#575756"/>
	</linearGradient>
	<path class="st4" d="M50,53.8c2.6,0,5.1,0,7.7,0c0.2,0,0.5-0.5,0.6-0.9c1.1-5.2,0.3-10.2-2.1-15c-1.3-2.5-3-4.3-5.8-5.1
		c-1.7-0.4-3.3-1.3-5.3-2C50,38,51.6,45.6,50,53.8z"/>
	<linearGradient id="SVGID_6_" gradientUnits="userSpaceOnUse" x1="59.5283" y1="52.2074" x2="71.5185" y2="40.2172">
		<stop  offset="0" style="stop-color:#FFFFFF"/>
		<stop  offset="0" style="stop-color:#EDEDED"/>
		<stop  offset="1" style="stop-color:#575756"/>
	</linearGradient>
	<path class="st5" d="M63.5,54.8c-0.1,0.2,0.2,0.7,0.4,0.8c1.9,1.2,2.9,2.9,3.3,5.1c2.4-5.4,3.1-10.9,0.1-16.3
		C65.4,41,62.9,38,59,36.6c0,0.2,0.1,0.3,0.2,0.5C63.1,42.3,65.1,48.1,63.5,54.8z"/>
	<path class="st269" d="M22.2,75.9c-2.6-2.7-4-5.9-3.8-9.7c0.1-2,0.6-4,1.1-6c0.4-1.9,0.8-3.7,0-5.5c-0.7-1.7-2.7-2.4-4.4-1.6
		c-1.1,0.6-1.6,1.9-1.1,3.2c0.5,1.1,1.8,1.7,2.9,1.2c0.4-0.2,0.9-0.8,0.9-1.3c0.1-0.4-0.4-1.1-0.7-1.2c-0.5-0.1-1,0.3-1.5,0.4
		c-0.1,0-0.2,0.1-0.3,0.2c-0.1-0.1-0.2-0.3-0.2-0.4c0.6-0.3,1.2-1,1.7-0.9c0.6,0.1,1.4,0.7,1.5,1.2c0.2,0.8,0.1,1.8-0.1,2.7
		c-0.6,2.5-1.4,5-1.9,7.6c-1,5.1,1.5,9.2,6.4,10.7c-0.1-0.2-0.1-0.3-0.2-0.3C22.4,76.1,22.3,76,22.2,75.9z"/>
	<g>
		<path class="st269" d="M58,62.1c-1.9,0-3.3,1.4-3.3,3.5c0,2,1.4,3.6,3.3,3.6c1.9,0,3.3-1.5,3.3-3.6C61.2,63.6,59.8,62.1,58,62.1z"
			/>
		<path class="st269" d="M45.9,65.5c-1.2-0.1-2.2,1-2.3,2.3c-0.1,1.4,0.8,2.4,2.1,2.4c1.3,0,2.3-0.9,2.3-2.2
			C48.1,66.7,47.1,65.6,45.9,65.5z"/>
		<path class="st269" d="M37,67.1c-1,0-1.7,0.8-1.7,1.9c0,1,0.8,1.8,1.7,1.8c0.9,0,1.7-0.8,1.7-1.8C38.7,67.9,37.9,67.1,37,67.1z"/>
	</g>
</g>
</svg>
